<svg width="309" height="287" viewBox="0 0 309 287" fill="none" xmlns="http://www.w3.org/2000/svg">
<g filter="url(#filter0_d_590_508)">
<path fill-rule="evenodd" clip-rule="evenodd" d="M82.9553 72.1573C84.2073 81.7492 86.911 93.9946 92.5934 105.212C97.7431 115.378 105.124 124.39 116.185 130.124L132.101 72.1573H82.9553ZM75.4032 56.0338C70.0617 56.0338 65.7378 60.2449 66.1033 65.5732C67.4399 85.0577 74.6362 129.01 111.841 145.942C113.784 146.826 115.81 147.637 117.919 148.366C120.845 149.378 123.934 150.233 127.196 150.914L153.248 56.0338H75.4032Z" fill="white"/>
<path fill-rule="evenodd" clip-rule="evenodd" d="M82.9553 72.1573C84.2073 81.7492 86.911 93.9946 92.5934 105.212C97.7431 115.378 105.124 124.39 116.185 130.124L132.101 72.1573H82.9553ZM75.4032 56.0338C70.0617 56.0338 65.7378 60.2449 66.1033 65.5732C67.4399 85.0577 74.6362 129.01 111.841 145.942C113.784 146.826 115.81 147.637 117.919 148.366C120.845 149.378 123.934 150.233 127.196 150.914L153.248 56.0338H75.4032Z" fill="white"/>
<g style="mix-blend-mode:overlay">
<path d="M82.9553 70.4877H81.0539L81.2999 72.3735C82.5652 82.0711 85.3057 94.5202 91.1033 105.966C96.3657 116.354 103.965 125.67 115.416 131.607L117.249 132.557L117.795 130.566L133.711 72.5999L134.291 70.4877H132.101H82.9553ZM67.7694 65.4595C67.4766 61.1905 70.931 57.7041 75.4031 57.7041H151.058L126.005 148.944C123.373 148.339 120.861 147.617 118.465 146.788C116.404 146.075 114.428 145.284 112.533 144.422C94.4243 136.181 83.568 121.35 77.0581 106.061C70.5425 90.7581 68.431 75.1039 67.7694 65.4595Z" fill="white"/>
<path d="M82.9553 70.4877H81.0539L81.2999 72.3735C82.5652 82.0711 85.3057 94.5202 91.1033 105.966C96.3657 116.354 103.965 125.67 115.416 131.607L117.249 132.557L117.795 130.566L133.711 72.5999L134.291 70.4877H132.101H82.9553ZM67.7694 65.4595C67.4766 61.1905 70.931 57.7041 75.4031 57.7041H151.058L126.005 148.944C123.373 148.339 120.861 147.617 118.465 146.788C116.404 146.075 114.428 145.284 112.533 144.422C94.4243 136.181 83.568 121.35 77.0581 106.061C70.5425 90.7581 68.431 75.1039 67.7694 65.4595Z" stroke="url(#paint0_linear_590_508)" stroke-opacity="0.5" stroke-width="4.26316" style="mix-blend-mode:overlay"/>
</g>
<path fill-rule="evenodd" clip-rule="evenodd" d="M239.045 72.7778C237.793 82.3696 235.089 94.615 229.407 105.832C223.889 116.723 215.812 126.289 203.392 131.92L175.556 72.7778H239.045ZM246.597 56.6543C251.939 56.6543 256.263 60.8646 255.897 66.1936C254.394 88.1061 245.479 140.966 194.803 151.534L150.148 56.6543H246.597Z" fill="white"/>
<path fill-rule="evenodd" clip-rule="evenodd" d="M239.045 72.7778C237.793 82.3696 235.089 94.615 229.407 105.832C223.889 116.723 215.812 126.289 203.392 131.92L175.556 72.7778H239.045ZM246.597 56.6543C251.939 56.6543 256.263 60.8646 255.897 66.1936C254.394 88.1061 245.479 140.966 194.803 151.534L150.148 56.6543H246.597Z" fill="white"/>
<g style="mix-blend-mode:overlay">
<path d="M239.045 71.1075H240.947L240.7 72.994C239.435 82.6909 236.695 95.14 230.897 106.586C225.257 117.718 216.936 127.613 204.081 133.442L202.582 134.122L201.881 132.631L174.045 73.4884L172.924 71.1075H175.556H239.045ZM254.231 66.0793C254.523 61.811 251.069 58.3239 246.597 58.3239H152.779L195.748 149.62C219.693 144.203 233.869 129.007 242.3 112.363C250.906 95.3734 253.486 76.934 254.231 66.0793Z" fill="white"/>
<path d="M239.045 71.1075H240.947L240.7 72.994C239.435 82.6909 236.695 95.14 230.897 106.586C225.257 117.718 216.936 127.613 204.081 133.442L202.582 134.122L201.881 132.631L174.045 73.4884L172.924 71.1075H175.556H239.045ZM254.231 66.0793C254.523 61.811 251.069 58.3239 246.597 58.3239H152.779L195.748 149.62C219.693 144.203 233.869 129.007 242.3 112.363C250.906 95.3734 253.486 76.934 254.231 66.0793Z" stroke="url(#paint1_linear_590_508)" stroke-opacity="0.5" stroke-width="4.26316" style="mix-blend-mode:overlay"/>
</g>
<path fill-rule="evenodd" clip-rule="evenodd" d="M189.411 199.952C191.364 202.519 194.499 203.81 197.724 203.81H201.08C205.691 203.81 209.43 207.549 209.43 212.16C209.43 216.771 205.691 220.51 201.08 220.51H120.92C116.309 220.51 112.57 216.771 112.57 212.16C112.57 207.549 116.309 203.81 120.92 203.81H124.605C127.858 203.81 131.027 202.535 133.028 199.969C146.817 182.296 149.945 154.472 149.536 154.283L173.126 154.015C172.723 154.224 175.817 182.085 189.411 199.952ZM173.126 154.015C173.129 154.014 173.129 154.015 173.126 154.015V154.015ZM149.536 154.283C149.535 154.282 149.535 154.283 149.536 154.283V154.283Z" fill="white"/>
<path fill-rule="evenodd" clip-rule="evenodd" d="M189.411 199.952C191.364 202.519 194.499 203.81 197.724 203.81H201.08C205.691 203.81 209.43 207.549 209.43 212.16C209.43 216.771 205.691 220.51 201.08 220.51H120.92C116.309 220.51 112.57 216.771 112.57 212.16C112.57 207.549 116.309 203.81 120.92 203.81H124.605C127.858 203.81 131.027 202.535 133.028 199.969C146.817 182.296 149.945 154.472 149.536 154.283L173.126 154.015C172.723 154.224 175.817 182.085 189.411 199.952ZM173.126 154.015C173.129 154.014 173.129 154.015 173.126 154.015V154.015ZM149.536 154.283C149.535 154.282 149.535 154.283 149.536 154.283V154.283Z" fill="white"/>
<path fill-rule="evenodd" clip-rule="evenodd" d="M189.411 199.952C191.364 202.519 194.499 203.81 197.724 203.81H201.08C205.691 203.81 209.43 207.549 209.43 212.16C209.43 216.771 205.691 220.51 201.08 220.51H120.92C116.309 220.51 112.57 216.771 112.57 212.16C112.57 207.549 116.309 203.81 120.92 203.81H124.605C127.858 203.81 131.027 202.535 133.028 199.969C146.817 182.296 149.945 154.472 149.536 154.283L173.126 154.015C172.723 154.224 175.817 182.085 189.411 199.952ZM173.126 154.015C173.129 154.014 173.129 154.015 173.126 154.015V154.015ZM149.536 154.283C149.535 154.282 149.535 154.283 149.536 154.283V154.283Z" fill="white"/>
<mask id="mask0_590_508" style="mask-type:luminance" maskUnits="userSpaceOnUse" x="112" y="154" width="98" height="67">
<path fill-rule="evenodd" clip-rule="evenodd" d="M189.411 199.952C191.364 202.519 194.499 203.81 197.724 203.81H201.08C205.691 203.81 209.43 207.549 209.43 212.16C209.43 216.771 205.691 220.51 201.08 220.51H120.92C116.309 220.51 112.57 216.771 112.57 212.16C112.57 207.549 116.309 203.81 120.92 203.81H124.605C127.858 203.81 131.027 202.535 133.028 199.969C146.817 182.296 149.945 154.472 149.536 154.283L173.126 154.015C172.723 154.224 175.817 182.085 189.411 199.952ZM173.126 154.015C173.129 154.014 173.129 154.015 173.126 154.015V154.015ZM149.536 154.283C149.535 154.282 149.535 154.283 149.536 154.283V154.283Z" fill="white"/>
</mask>
<g mask="url(#mask0_590_508)">
<g style="mix-blend-mode:overlay">
<path d="M197.724 207.15H201.08V200.47H197.724V207.15ZM201.08 217.17H120.92V223.85H201.08V217.17ZM120.92 207.15H124.605V200.47H120.92V207.15ZM135.662 202.024C142.955 192.676 147.329 180.807 149.833 171.431C151.094 166.712 151.902 162.546 152.369 159.527C152.603 158.021 152.756 156.777 152.837 155.875C152.876 155.434 152.904 155.026 152.91 154.691C152.912 154.539 152.913 154.307 152.889 154.061C152.879 153.954 152.851 153.699 152.766 153.398C152.724 153.251 152.633 152.962 152.445 152.635C152.284 152.353 151.841 151.668 150.934 151.249L148.14 157.317C147.238 156.902 146.801 156.222 146.646 155.95C146.465 155.632 146.378 155.357 146.341 155.226C146.264 154.957 146.244 154.748 146.24 154.701C146.227 154.571 146.232 154.508 146.231 154.574C146.229 154.677 146.218 154.904 146.184 155.276C146.118 156.001 145.986 157.1 145.768 158.504C145.334 161.307 144.574 165.238 143.38 169.707C140.975 178.709 136.891 189.589 130.395 197.915L135.662 202.024ZM149.575 157.623L173.164 157.355L173.089 150.675L149.499 150.943L149.575 157.623ZM171.591 151.049C170.737 151.492 170.33 152.16 170.185 152.425C170.014 152.741 169.929 153.017 169.89 153.16C169.809 153.451 169.783 153.697 169.773 153.803C169.75 154.046 169.751 154.274 169.754 154.427C169.76 154.761 169.786 155.169 169.826 155.612C169.906 156.515 170.057 157.762 170.287 159.272C170.749 162.299 171.545 166.475 172.789 171.21C175.26 180.618 179.572 192.535 186.753 201.975L192.069 197.93C185.657 189.502 181.624 178.554 179.25 169.513C178.071 165.024 177.32 161.079 176.891 158.265C176.675 156.854 176.545 155.751 176.48 155.021C176.447 154.647 176.435 154.417 176.433 154.311C176.432 154.244 176.436 154.303 176.425 154.426C176.42 154.473 176.401 154.672 176.331 154.931C176.295 155.057 176.216 155.32 176.049 155.625C175.91 155.88 175.51 156.542 174.662 156.981L171.591 151.049ZM174.66 156.983C174.631 156.998 174.601 157.012 174.571 157.027L171.682 151.003C171.652 151.018 171.622 151.032 171.593 151.048L174.66 156.983ZM148.218 157.352C148.191 157.34 148.165 157.329 148.14 157.317L150.934 151.249C150.908 151.238 150.882 151.226 150.855 151.214L148.218 157.352ZM150.855 151.214C150.69 151.143 150.352 151.013 149.903 150.963C149.752 150.946 149.187 150.885 148.509 151.105C148.177 151.211 147.411 151.515 146.823 152.334C146.103 153.335 146.071 154.506 146.388 155.4C146.649 156.134 147.093 156.579 147.299 156.763C147.542 156.983 147.769 157.123 147.918 157.205C148.218 157.371 148.485 157.458 148.654 157.505C149.012 157.603 149.331 157.626 149.575 157.623L149.499 150.943C149.741 150.941 150.059 150.964 150.417 151.061C150.586 151.108 150.853 151.195 151.153 151.361C151.301 151.443 151.529 151.583 151.772 151.802C151.977 151.987 152.422 152.431 152.683 153.165C153 154.06 152.967 155.231 152.247 156.232C151.66 157.05 150.893 157.354 150.561 157.461C149.884 157.68 149.319 157.619 149.168 157.603C148.719 157.552 148.382 157.422 148.218 157.352L150.855 151.214ZM173.164 157.355C173.422 157.352 173.755 157.318 174.127 157.202C174.303 157.147 174.573 157.046 174.873 156.863C175.022 156.771 175.242 156.621 175.474 156.393C175.675 156.194 176.073 155.754 176.302 155.056C176.57 154.237 176.563 153.13 175.893 152.141C175.32 151.296 174.548 150.966 174.173 150.842C173.446 150.603 172.838 150.683 172.678 150.705C172.201 150.77 171.849 150.924 171.682 151.003L174.571 157.027C174.405 157.106 174.054 157.259 173.578 157.324C173.418 157.346 172.81 157.426 172.083 157.186C171.708 157.063 170.936 156.734 170.363 155.888C169.693 154.9 169.685 153.793 169.955 152.973C170.184 152.276 170.581 151.835 170.782 151.636C171.013 151.409 171.234 151.258 171.383 151.167C171.682 150.984 171.952 150.883 172.129 150.828C172.5 150.712 172.833 150.678 173.089 150.675L173.164 157.355ZM124.605 207.15C128.689 207.15 132.915 205.545 135.662 202.024L130.395 197.915C129.14 199.524 127.028 200.47 124.605 200.47V207.15ZM115.91 212.16C115.91 209.393 118.154 207.15 120.92 207.15V200.47C114.464 200.47 109.23 205.704 109.23 212.16H115.91ZM120.92 217.17C118.154 217.17 115.91 214.926 115.91 212.16H109.23C109.23 218.616 114.464 223.85 120.92 223.85V217.17ZM206.09 212.16C206.09 214.926 203.847 217.17 201.08 217.17V223.85C207.536 223.85 212.77 218.616 212.77 212.16H206.09ZM201.08 207.15C203.847 207.15 206.09 209.393 206.09 212.16H212.77C212.77 205.704 207.536 200.47 201.08 200.47V207.15ZM197.724 200.47C195.348 200.47 193.282 199.524 192.069 197.93L186.753 201.975C189.446 205.514 193.649 207.15 197.724 207.15V200.47Z" fill="white"/>
</g>
</g>
<path d="M92.8104 46.6647C92.5127 41.193 96.918 36.8102 102.398 36.8102H161.31H220.222C225.702 36.8102 230.107 41.193 229.809 46.6647C228.168 76.8181 218.481 165.797 161.31 165.797C104.139 165.797 94.4517 76.8181 92.8104 46.6647Z" fill="white"/>
<g style="mix-blend-mode:overlay">
<path d="M94.4776 46.5739C94.2355 42.1182 97.8151 38.4802 102.398 38.4802H161.31H220.222C224.805 38.4802 228.384 42.1182 228.142 46.5739C227.324 61.6019 224.502 91.1796 214.82 116.951C205.109 142.798 188.796 164.127 161.31 164.127C133.823 164.127 117.51 142.798 107.799 116.951C98.1175 91.1796 95.2963 61.6019 94.4776 46.5739Z" fill="white"/>
<path d="M94.4776 46.5739C94.2355 42.1182 97.8151 38.4802 102.398 38.4802H161.31H220.222C224.805 38.4802 228.384 42.1182 228.142 46.5739C227.324 61.6019 224.502 91.1796 214.82 116.951C205.109 142.798 188.796 164.127 161.31 164.127C133.823 164.127 117.51 142.798 107.799 116.951C98.1175 91.1796 95.2963 61.6019 94.4776 46.5739Z" stroke="url(#paint2_linear_590_508)" stroke-opacity="0.5" stroke-width="4.26316" style="mix-blend-mode:overlay"/>
</g>
</g>
<defs>
<filter id="filter0_d_590_508" x="48.5674" y="23.5592" width="233.392" height="226.793" filterUnits="userSpaceOnUse" color-interpolation-filters="sRGB">
<feFlood flood-opacity="0" result="BackgroundImageFix"/>
<feColorMatrix in="SourceAlpha" type="matrix" values="0 0 0 0 0 0 0 0 0 0 0 0 0 0 0 0 0 0 127 0" result="hardAlpha"/>
<feOffset dx="4.26316" dy="8.52632"/>
<feGaussianBlur stdDeviation="10.6579"/>
<feComposite in2="hardAlpha" operator="out"/>
<feColorMatrix type="matrix" values="0 0 0 0 0 0 0 0 0 0 0 0 0 0 0 0 0 0 0.25 0"/>
<feBlend mode="normal" in2="BackgroundImageFix" result="effect1_dropShadow_590_508"/>
<feBlend mode="normal" in="SourceGraphic" in2="effect1_dropShadow_590_508" result="shape"/>
</filter>
<linearGradient id="paint0_linear_590_508" x1="109.665" y1="56.0338" x2="109.665" y2="150.914" gradientUnits="userSpaceOnUse">
<stop stop-color="white"/>
<stop offset="1" stop-opacity="0.89"/>
</linearGradient>
<linearGradient id="paint1_linear_590_508" x1="203.033" y1="56.6543" x2="203.033" y2="151.534" gradientUnits="userSpaceOnUse">
<stop stop-color="white"/>
<stop offset="1" stop-opacity="0.89"/>
</linearGradient>
<linearGradient id="paint2_linear_590_508" x1="161.31" y1="36.8102" x2="161.31" y2="165.797" gradientUnits="userSpaceOnUse">
<stop stop-color="white"/>
<stop offset="1" stop-opacity="0.89"/>
</linearGradient>
</defs>
</svg>
